<svg id="spaceship" xmlns="http://www.w3.org/2000/svg" xmlns:xlink="http://www.w3.org/1999/xlink" viewBox="0 0 277.2 549.26" height="15" width="15">
  <defs>
    <style>
      .cls-1 {
        fill: #ec2c00;
      }

      .cls-2 {
        fill: #f4f4f4;
      }

      .cls-3 {
        fill: #c4c4c4;
        opacity: 0.24;
      }

      .cls-4, .cls-5 {
        stroke: #ec2c00;
        stroke-miterlimit: 10;
        stroke-width: 5px;
      }

      .cls-4 {
        fill: url(#New_Gradient_Swatch);
      }

      .cls-5 {
        fill: url(#linear-gradient);
      }

      .cls-6 {
        fill: #515151;
      }

      .cls-7 {
        fill: #8e8e8e;
      }

      .cls-8 {
        fill: #ed1c24;
      }

      .cls-9 {
        fill: #eac734;
      }

      .cls-10 {
        fill: #fff;
      }
    </style>
    <linearGradient id="New_Gradient_Swatch" data-name="New Gradient Swatch" x1="74.19" y1="202.45" x2="194.11" y2="59.87" gradientUnits="userSpaceOnUse">
      <stop offset="0.2" stop-color="blue"/>
      <stop offset="0.52" stop-color="#ccc"/>
      <stop offset="0.77" stop-color="#009245"/>
    </linearGradient>
    <linearGradient id="linear-gradient" x1="109.3" y1="263.35" x2="172.57" y2="191.59" gradientUnits="userSpaceOnUse">
      <stop offset="0.11" stop-color="blue"/>
      <stop offset="0.49" stop-color="#ccc"/>
      <stop offset="0.77" stop-color="#009245"/>
    </linearGradient>
  </defs>
  <g>
    <g id="fins">
      <path class="cls-1" d="M679.09,360.68C607.2,434.37,583,507.07,601,586.83c24.36-43.07,54.67-54.69,93.52-27.43Z" transform="translate(-595.27 -228.59)"/>
      <path class="cls-1" d="M788.65,360.68c71.88,73.69,96.09,146.39,78.13,226.15-24.36-43.07-54.67-54.69-93.51-27.43Z" transform="translate(-595.27 -228.59)"/>
    </g>
    <path id="bodu" class="cls-2" d="M732.29,228.59C634.6,318,634.51,442.71,678.91,567h107C824.71,448.86,838.27,320.71,732.29,228.59Z" transform="translate(-595.27 -228.59)"/>
    <path class="cls-3" d="M732.73,231.82c40.44,119,47.17,234.75,0,338h53.18C824.66,451.86,838.23,323.91,732.73,231.82Z" transform="translate(-595.27 -228.59)"/>
    <circle class="cls-4" cx="137.16" cy="127.58" r="42.5"/>
    <circle class="cls-5" cx="137.16" cy="231.75" r="36.5"/>
    <path id="cone_top" data-name="cone top" class="cls-1" d="M732,228.83c-20.28,16.07-36.47,37.29-50.31,63l102.82-.21A201.65,201.65,0,0,0,732,228.83Z" transform="translate(-595.27 -228.59)"/>
    <g id="engine">
      <polygon id="bottom_engine" data-name="bottom engine" class="cls-6" points="169.96 384.13 108.15 384.37 100.64 357.13 176.72 357.13 169.96 384.13"/>
      <polygon id="top_engine" data-name="top engine" class="cls-7" points="181.38 365.25 94.5 365.48 83.95 338.24 190.88 338.24 181.38 365.25"/>
    </g>
    <g id="flames">
      <path class="cls-8" d="M787.66,660.82c14.83,44.33-22,100-30,101.78,9.13-19-9.5-34-20.91-12.76-21.48-22.35,8.8-33.56-6.08-31.57-29.22,3.92-15.39,47.78-4.57,59.58,0,0-43.34-47.48-43.34-87.24s27.37-68.8,54.75-68.8S779.62,636.79,787.66,660.82Z" transform="translate(-595.27 -228.59)"/>
      <path class="cls-9" d="M771.31,656.06c14.08,38.22-2,68.23-7.16,69.39,5.93-12.34-14.54-22.33-22-8.5-14-14.53-3.07-18.3-12.74-17-19,2.54-29.7,19.95-22.67,27.62-4.45-.16-14.14-32.45-7.79-58.07,6.22-25.09,21.9-38.79,39.7-38.79S765.62,640.6,771.31,656.06Z" transform="translate(-595.27 -228.59)"/>
      <path class="cls-10" d="M758,648.56c8.63,24.84-1.21,44.35-4.39,45.1,3.63-8-8.92-14.52-13.46-5.53-8.56-9.44-1.89-11.89-7.82-11-11.64,1.65-18.2,13-13.89,17.95-2.73-.1-8.67-21.1-4.78-37.75,3.82-16.3,13.43-25.21,24.34-25.21S754.51,638.51,758,648.56Z" transform="translate(-595.27 -228.59)"/>
    </g>
  </g>
</svg>
